<?xml version="1.0" standalone="no"?>
<!DOCTYPE svg PUBLIC "-//W3C//DTD SVG 20010904//EN"
 "http://www.w3.org/TR/2001/REC-SVG-20010904/DTD/svg10.dtd">
<svg version="1.0" xmlns="http://www.w3.org/2000/svg"
 width="528.000000pt" height="528.000000pt" viewBox="0 0 528.000000 528.000000"
 preserveAspectRatio="xMidYMid meet">
<metadata>
Created by potrace 1.14, written by Peter Selinger 2001-2017
</metadata>
<g transform="translate(0.000000,528.000000) scale(0.100000,-0.100000)"
fill="#000000" stroke="none">
<path d="M2037 3963 c-16 -3 -30 -10 -33 -17 -2 -6 45 -243 105 -526 60 -283
111 -526 113 -539 3 -25 1 -25 -357 -102 -198 -43 -369 -78 -380 -78 -14 0
-58 48 -149 164 -124 158 -166 196 -166 147 0 -10 29 -105 65 -212 36 -107 65
-198 65 -202 0 -4 -31 -29 -69 -54 -38 -25 -72 -53 -75 -61 -5 -12 8 -53 17
-53 10 0 170 -30 172 -32 1 -2 10 -93 20 -203 10 -110 22 -210 26 -222 13 -35
37 -28 48 15 6 20 30 115 55 211 25 95 46 175 48 176 2 1 172 38 378 81 228
49 376 76 378 69 2 -5 54 -248 116 -540 l112 -530 36 -3 c20 -2 39 2 45 10 5
7 30 267 54 577 24 310 48 569 54 576 5 7 205 54 443 105 239 50 464 100 500
112 182 55 262 132 232 223 -25 75 -122 106 -279 87 -53 -6 -286 -52 -519
-102 -232 -49 -430 -90 -440 -90 -12 0 -94 141 -293 507 -151 279 -280 508
-285 508 -5 1 -22 0 -37 -2z"/>
<path d="M2853 3693 c9 -2 25 -2 35 0 9 3 1 5 -18 5 -19 0 -27 -2 -17 -5z"/>
<path d="M2773 3683 c9 -2 25 -2 35 0 9 3 1 5 -18 5 -19 0 -27 -2 -17 -5z"/>
<path d="M4140 2465 c-58 -7 -106 -13 -107 -14 -1 -1 1 -31 4 -68 12 -149 -31
-352 -107 -509 -142 -293 -400 -503 -713 -581 -56 -14 -103 -27 -105 -28 -2
-2 10 -128 24 -232 5 -43 5 -43 -28 -44 -18 0 -27 -3 -20 -6 21 -8 198 27 295
58 447 146 793 517 902 971 28 116 44 286 37 396 l-4 72 -37 -1 c-20 -1 -83
-7 -141 -14z"/>
<path d="M3668 2416 c-53 -6 -101 -15 -106 -21 -5 -5 -15 -28 -22 -50 -61
-193 -222 -405 -402 -532 -43 -30 -78 -60 -78 -66 0 -35 31 -281 36 -286 3 -3
34 10 70 29 238 129 454 352 578 598 36 71 97 242 111 310 l7 32 -49 -1 c-26
-1 -92 -7 -145 -13z"/>
<path d="M3100 2357 c-52 -5 -97 -11 -99 -13 -6 -5 21 -259 29 -267 13 -14
230 257 230 287 0 7 -38 6 -160 -7z"/>
<path d="M1612 2150 c0 -19 2 -27 5 -17 2 9 2 25 0 35 -3 9 -5 1 -5 -18z"/>
<path d="M296 468 c-53 -139 -96 -256 -96 -260 0 -5 24 -8 53 -8 l52 0 23 65
24 65 86 0 87 0 23 -65 24 -65 55 0 c40 0 54 3 51 13 -3 6 -47 123 -98 260
l-94 247 -46 0 -47 0 -97 -252z m175 34 c12 -37 24 -73 27 -79 3 -10 -13 -13
-61 -13 l-64 0 30 84 c17 47 34 83 38 80 4 -2 17 -35 30 -72z"/>
<path d="M730 459 l0 -261 133 4 c126 3 135 5 187 34 38 22 64 46 85 79 28 45
30 55 30 145 0 90 -2 100 -30 146 -57 91 -113 114 -287 114 l-118 0 0 -261z
m218 162 c104 -20 151 -145 95 -254 -23 -45 -69 -67 -140 -67 l-63 0 0 165 0
165 33 0 c17 -1 51 -5 75 -9z"/>
<path d="M1325 706 c-37 -16 -82 -68 -91 -102 -4 -14 -4 -44 -1 -67 8 -59 47
-90 153 -122 78 -24 124 -51 124 -73 0 -5 -6 -17 -14 -28 -22 -29 -117 -25
-185 10 -29 14 -54 26 -57 26 -4 0 -44 -76 -44 -85 0 -3 26 -18 58 -33 83 -38
209 -43 271 -10 59 30 84 76 78 142 -6 71 -48 106 -164 142 -101 30 -113 38
-113 70 0 57 100 70 178 23 38 -22 38 -22 68 34 14 27 14 30 -3 42 -55 42
-195 58 -258 31z"/>
<path d="M1990 460 l0 -260 138 0 c157 0 205 10 243 51 51 55 45 147 -13 193
l-32 25 21 23 c57 62 43 170 -27 212 -23 13 -57 16 -179 16 l-151 0 0 -260z
m270 150 c24 -24 26 -57 3 -82 -13 -14 -31 -18 -95 -18 l-78 0 0 60 0 60 75 0
c62 0 79 -4 95 -20z m24 -212 c23 -33 19 -64 -10 -87 -22 -17 -41 -21 -105
-21 l-79 0 0 65 0 65 89 0 c82 0 91 -2 105 -22z"/>
<path d="M1677 443 c-4 -3 -7 -24 -7 -45 l0 -38 115 0 115 0 0 45 0 45 -108 0
c-60 0 -112 -3 -115 -7z"/>
</g>
</svg>
